<svg width="24" height="24" viewBox="0 0 27 27" fill="none" xmlns="http://www.w3.org/2000/svg">
    <path d="M13.5 26.0674C6.53027 26.0674 0.766602 20.3037 0.766602 13.334C0.766602 6.35156 6.51758 0.600586 13.4873 0.600586C20.4697 0.600586 26.2334 6.35156 26.2334 13.334C26.2334 20.3037 20.4697 26.0674 13.5 26.0674ZM7.52051 13.3467C7.52051 13.8164 7.88867 14.1719 8.38379 14.1719H12.6621V18.4502C12.6621 18.9326 13.0049 19.3008 13.4873 19.3008C13.9951 19.3008 14.3506 18.9453 14.3506 18.4502V14.1719H18.6289C19.1113 14.1719 19.4795 13.8164 19.4795 13.3467C19.4795 12.8389 19.124 12.4834 18.6289 12.4834H14.3506V8.20508C14.3506 7.69727 13.9951 7.3418 13.4873 7.3418C13.0049 7.3418 12.6621 7.70996 12.6621 8.20508V12.4834H8.38379C7.87598 12.4834 7.52051 12.8389 7.52051 13.3467Z" fill="#5856D6"/>
</svg>
