<svg width="28" height="28" viewBox="0 0 28 28" fill="none" xmlns="http://www.w3.org/2000/svg">
    <g clip-path="url(#clip0_147_4028)">
        <path fill-rule="evenodd" clip-rule="evenodd" d="M14 28C6.33333 28 0 21.6667 0 14C0 6.33333 6.32258 0 13.9892 0C21.6559 0 28 6.33333 28 14C28 21.6667 21.6667 28 14 28ZM12.2796 21.0325C12.6775 21.0325 13.0216 20.8497 13.2796 20.4518L20.5054 9.12925C20.6667 8.8927 20.8065 8.60237 20.8065 8.34431C20.8065 7.77442 20.3011 7.41958 19.7742 7.41958C19.4624 7.41958 19.1506 7.60237 18.914 7.96796L12.2259 18.6024L8.66671 14.14C8.38714 13.7852 8.09682 13.6561 7.75273 13.6561C7.22585 13.6561 6.78499 14.0755 6.78499 14.6454C6.78499 14.9142 6.89252 15.2045 7.07531 15.4303L11.2259 20.4626C11.5592 20.8712 11.8818 21.0325 12.2796 21.0325Z" fill="#5856D6"/>
    </g>
    <defs>
        <clipPath id="clip0_147_4028">
            <rect width="28" height="28" fill="white"/>
        </clipPath>
    </defs>
</svg>
