<svg width="24" height="24" viewBox="0 0 20 23" fill="none" xmlns="http://www.w3.org/2000/svg">
    <path d="M14.0013 5.56803C14.0016 5.56817 14.0015 5.5686 14.0011 5.5686C13.4026 5.56873 12.8448 5.6563 12.3276 5.8313C11.8101 6.00642 11.3389 6.18117 10.914 6.35552C10.4891 6.52988 10.1209 6.61744 9.8094 6.61821C9.31022 6.61821 8.73916 6.45234 8.09623 6.1206C7.45329 5.78886 6.73887 5.62299 5.95297 5.62299C4.96739 5.62299 4.01896 5.8853 3.10767 6.40991C2.19637 6.93452 1.4508 7.70293 0.870961 8.71512C0.291119 9.72731 0.000798681 10.9748 0 12.4576C0 13.8316 0.237208 15.206 0.711624 16.5808C1.18604 17.9556 1.77267 19.1129 2.47152 20.0525C3.07053 20.8479 3.64757 21.538 4.20266 22.1228C4.75774 22.7076 5.40986 23 6.15903 23C6.6582 23 7.08869 22.9186 7.45049 22.7558C7.81229 22.593 8.19287 22.4333 8.59221 22.2767C8.99155 22.1201 9.49072 22.0418 10.0897 22.0418C10.7135 22.0418 11.2127 22.117 11.5873 22.2675C11.9618 22.4179 12.3204 22.5714 12.6631 22.728C13.0057 22.8847 13.4518 22.963 14.0013 22.963C14.8 22.963 15.4896 22.6648 16.0703 22.0684C16.6509 21.4721 17.1908 20.8182 17.69 20.1069C18.2515 19.3115 18.66 18.5821 18.9156 17.9186C18.9969 17.7075 19.0652 17.5276 19.1207 17.3788C19.2281 17.0905 19.0747 16.7426 18.8029 16.5982C18.4851 16.4292 18.1201 16.1638 17.7079 15.802C17.2958 15.4402 16.934 14.9642 16.6225 14.374C16.3111 13.7838 16.1549 13.0605 16.1541 12.2042C16.1541 11.2275 16.357 10.4228 16.7627 9.79019C17.1684 9.15757 17.5802 8.68426 17.9979 8.37026C18.4106 8.06004 18.4802 7.5295 18.1218 7.1579C17.7417 6.76385 17.3382 6.46283 16.9113 6.25484C16.2683 5.94162 15.6785 5.74875 15.1418 5.67623C14.6061 5.60385 14.226 5.56759 14.0014 5.56745C14.0011 5.56745 14.001 5.56788 14.0013 5.56803ZM13.1411 3.66958C13.5277 3.24758 13.8335 2.75653 14.0588 2.19643C14.284 1.63633 14.3962 1.0608 14.3954 0.469837C14.3954 0.201917 14.1727 0.00034141 13.9078 0.0405416C13.4427 0.11114 12.9654 0.272368 12.4762 0.524226C11.8213 0.861367 11.2814 1.27141 10.8565 1.75436C10.5194 2.12776 10.2199 2.58873 9.95795 3.13726C9.69598 3.68579 9.565 4.26132 9.565 4.86385C9.565 4.98028 9.57184 5.07689 9.58552 5.15368C9.59949 5.2321 9.67263 5.2807 9.75189 5.28855C9.81419 5.29473 9.88288 5.29781 9.95795 5.29781C10.4819 5.29781 11.0466 5.14428 11.652 4.83723C12.2574 4.53018 12.7533 4.14135 13.1399 3.67074L13.1411 3.66958Z" fill="white"/>
</svg>


