<svg width="27" height="27" viewBox="0 0 27 27" fill="none" xmlns="http://www.w3.org/2000/svg">
    <path d="M5.12109 26.0352C3.60807 26.0352 2.45508 25.6432 1.66211 24.8594C0.878255 24.0846 0.486328 22.9499 0.486328 21.4551V4.84375C0.486328 3.34896 0.878255 2.21419 1.66211 1.43945C2.45508 0.655599 3.60807 0.263672 5.12109 0.263672H21.6367C23.1497 0.263672 24.2982 0.655599 25.082 1.43945C25.875 2.21419 26.2715 3.34896 26.2715 4.84375V21.4551C26.2715 22.9499 25.875 24.0846 25.082 24.8594C24.2982 25.6432 23.1497 26.0352 21.6367 26.0352H5.12109ZM20.8438 13.1152C20.8438 12.6868 20.6706 12.3086 20.3242 11.9805L15.4707 7.23633C15.2064 6.98112 14.8874 6.85352 14.5137 6.85352C14.1491 6.85352 13.8483 6.97656 13.6113 7.22266C13.3835 7.45964 13.2695 7.76497 13.2695 8.13867C13.2695 8.50326 13.4108 8.81771 13.6934 9.08203L15.3477 10.6406L16.8789 11.8438L14.0078 11.6797H7.37695C6.97591 11.6797 6.64779 11.8164 6.39258 12.0898C6.13737 12.3633 6.00977 12.7051 6.00977 13.1152C6.00977 13.5254 6.13737 13.8672 6.39258 14.1406C6.64779 14.4141 6.97591 14.5508 7.37695 14.5508H14.0078L16.8926 14.3867L15.375 15.5898L13.6934 17.1484C13.4108 17.3945 13.2695 17.7135 13.2695 18.1055C13.2695 18.4792 13.3835 18.7891 13.6113 19.0352C13.8483 19.2721 14.1491 19.3906 14.5137 19.3906C14.8783 19.3906 15.1973 19.2585 15.4707 18.9941L20.3242 14.2637C20.6706 13.9264 20.8438 13.5436 20.8438 13.1152Z" fill="white"/>
</svg>
