<svg width="24" height="24" viewBox="0 0 26 26" fill="none" xmlns="http://www.w3.org/2000/svg">
    <g clip-path="url(#clip0_22_971)">
        <g filter="url(#filter0_b_22_971)">
            <rect width="26" height="26" rx="13" fill="black" fill-opacity="0.25"/>
        </g>
        <path d="M8.01709 18.3999C7.89437 18.2772 7.81185 18.1333 7.76953 17.9683C7.73145 17.799 7.73356 17.634 7.77588 17.4731C7.8182 17.3081 7.89648 17.1685 8.01074 17.0542L11.6353 13.4233L8.01074 9.79883C7.89648 9.68457 7.8182 9.54492 7.77588 9.37988C7.73779 9.21484 7.73779 9.0498 7.77588 8.88477C7.8182 8.71973 7.8986 8.57585 8.01709 8.45312C8.13981 8.32617 8.28369 8.24365 8.44873 8.20557C8.618 8.16748 8.78516 8.16748 8.9502 8.20557C9.11523 8.24365 9.257 8.32194 9.37549 8.44043L13 12.0586L16.6182 8.44043C16.7367 8.32194 16.8784 8.24365 17.0435 8.20557C17.2085 8.16325 17.3714 8.16325 17.5322 8.20557C17.6973 8.24788 17.8433 8.3304 17.9702 8.45312C18.0929 8.57585 18.1755 8.71973 18.2178 8.88477C18.2601 9.0498 18.2601 9.21484 18.2178 9.37988C18.1797 9.54069 18.1014 9.68245 17.9829 9.80518L14.3647 13.4233L17.9829 17.0479C18.1014 17.1663 18.1797 17.3081 18.2178 17.4731C18.2559 17.6382 18.2537 17.8032 18.2114 17.9683C18.1733 18.1333 18.0929 18.2772 17.9702 18.3999C17.8475 18.5226 17.7036 18.603 17.5386 18.6411C17.3735 18.6834 17.2085 18.6855 17.0435 18.6475C16.8784 18.6094 16.7367 18.529 16.6182 18.4062L13 14.7881L9.37549 18.4126C9.257 18.5269 9.11523 18.603 8.9502 18.6411C8.78939 18.6834 8.62435 18.6834 8.45508 18.6411C8.29004 18.603 8.14404 18.5226 8.01709 18.3999Z" fill="white"/>
    </g>
    <defs>
        <filter id="filter0_b_22_971" x="-27.1828" y="-27.1828" width="80.3656" height="80.3656" filterUnits="userSpaceOnUse" color-interpolation-filters="sRGB">
            <feFlood flood-opacity="0" result="BackgroundImageFix"/>
            <feGaussianBlur in="BackgroundImageFix" stdDeviation="13.5914"/>
            <feComposite in2="SourceAlpha" operator="in" result="effect1_backgroundBlur_22_971"/>
            <feBlend mode="normal" in="SourceGraphic" in2="effect1_backgroundBlur_22_971" result="shape"/>
        </filter>
        <clipPath id="clip0_22_971">
            <rect width="26" height="26" fill="white"/>
        </clipPath>
    </defs>
</svg>
