<svg width="24" height="24" viewBox="0 0 18 21" fill="none" xmlns="http://www.w3.org/2000/svg">
    <path d="M4.89062 20.7314C4.44401 20.7314 4.05436 20.6449 3.72168 20.4717C3.389 20.2985 3.12695 20.0501 2.93555 19.7266C2.74414 19.4076 2.63704 19.0247 2.61426 18.5781L2.00586 5.78125H0.980469C0.766276 5.78125 0.583984 5.70833 0.433594 5.5625C0.283203 5.41667 0.208008 5.23665 0.208008 5.02246C0.208008 4.80827 0.283203 4.62826 0.433594 4.48242C0.583984 4.33659 0.766276 4.26367 0.980469 4.26367H16.8809C17.0996 4.26367 17.2819 4.33659 17.4277 4.48242C17.5781 4.6237 17.6533 4.80371 17.6533 5.02246C17.6533 5.23665 17.5781 5.41667 17.4277 5.5625C17.2819 5.70833 17.0996 5.78125 16.8809 5.78125H15.8623L15.2539 18.5781C15.2311 19.0202 15.124 19.4007 14.9326 19.7197C14.7412 20.0433 14.4792 20.2917 14.1465 20.4648C13.8138 20.6426 13.4242 20.7314 12.9775 20.7314H4.89062ZM5.06836 19.1934H12.7861C13.0413 19.1934 13.251 19.109 13.415 18.9404C13.5791 18.7718 13.6657 18.5531 13.6748 18.2842L14.2559 5.78125H3.57812L4.18652 18.2842C4.19564 18.5531 4.28223 18.7718 4.44629 18.9404C4.61491 19.109 4.82227 19.1934 5.06836 19.1934ZM6.32617 17.7305C6.15755 17.7305 6.01855 17.6781 5.90918 17.5732C5.80436 17.4684 5.74967 17.3317 5.74512 17.1631L5.47168 7.87305C5.46712 7.70443 5.51725 7.56771 5.62207 7.46289C5.72689 7.35807 5.86816 7.30566 6.0459 7.30566C6.21452 7.30566 6.35352 7.35807 6.46289 7.46289C6.57227 7.56315 6.62923 7.69531 6.63379 7.85938L6.90723 17.1562C6.91178 17.3249 6.86165 17.4616 6.75684 17.5664C6.65202 17.6758 6.50846 17.7305 6.32617 17.7305ZM8.9375 17.7305C8.75977 17.7305 8.61621 17.6781 8.50684 17.5732C8.39746 17.4684 8.34277 17.3317 8.34277 17.1631V7.86621C8.34277 7.69759 8.39746 7.56315 8.50684 7.46289C8.61621 7.35807 8.75977 7.30566 8.9375 7.30566C9.11068 7.30566 9.25195 7.35807 9.36133 7.46289C9.4707 7.56315 9.52539 7.69759 9.52539 7.86621V17.1631C9.52539 17.3317 9.4707 17.4684 9.36133 17.5732C9.25195 17.6781 9.11068 17.7305 8.9375 17.7305ZM11.5352 17.7305C11.3574 17.7305 11.2139 17.6758 11.1045 17.5664C10.9951 17.4616 10.945 17.3249 10.9541 17.1562L11.2275 7.86621C11.2321 7.69759 11.2891 7.56315 11.3984 7.46289C11.5078 7.36263 11.6468 7.3125 11.8154 7.3125C11.9932 7.3125 12.1344 7.36491 12.2393 7.46973C12.3486 7.56999 12.401 7.70443 12.3965 7.87305L12.123 17.1699C12.1139 17.3385 12.057 17.473 11.9521 17.5732C11.8473 17.6781 11.7083 17.7305 11.5352 17.7305ZM4.91113 4.79004V2.91699C4.91113 2.24707 5.11393 1.72526 5.51953 1.35156C5.92513 0.977865 6.49479 0.791016 7.22852 0.791016H10.626C11.3597 0.791016 11.9271 0.977865 12.3281 1.35156C12.7337 1.72526 12.9365 2.24707 12.9365 2.91699V4.79004H11.3438V2.98535C11.3438 2.75293 11.2686 2.56836 11.1182 2.43164C10.9723 2.29036 10.7718 2.21973 10.5166 2.21973H7.33105C7.0804 2.21973 6.87988 2.29036 6.72949 2.43164C6.5791 2.56836 6.50391 2.75293 6.50391 2.98535V4.79004H4.91113Z" fill="#18191F"/>
</svg>
