<svg width="24" height="24" viewBox="0 0 24 24" fill="none" xmlns="http://www.w3.org/2000/svg">
    <path d="M8.86768 20.5938C8.69613 20.5938 8.55778 20.5412 8.45264 20.436C8.34749 20.3364 8.29215 20.2036 8.28662 20.0376L7.94629 8.3418C7.94076 8.17578 7.99056 8.04297 8.0957 7.94336C8.20638 7.83822 8.35026 7.78564 8.52734 7.78564C8.69336 7.78564 8.82894 7.83545 8.93408 7.93506C9.04476 8.03467 9.10286 8.16471 9.1084 8.3252L9.44873 20.0376C9.45426 20.1981 9.40169 20.3309 9.29102 20.436C9.18587 20.5412 9.04476 20.5938 8.86768 20.5938ZM12.0635 20.5938C11.8864 20.5938 11.7425 20.5412 11.6318 20.436C11.5212 20.3309 11.4658 20.1981 11.4658 20.0376V8.3418C11.4658 8.17578 11.5212 8.04297 11.6318 7.94336C11.7425 7.83822 11.8864 7.78564 12.0635 7.78564C12.2406 7.78564 12.3844 7.83822 12.4951 7.94336C12.6058 8.04297 12.6611 8.17578 12.6611 8.3418V20.0376C12.6611 20.1981 12.6058 20.3309 12.4951 20.436C12.3844 20.5412 12.2406 20.5938 12.0635 20.5938ZM15.251 20.5938C15.0739 20.5938 14.9328 20.5412 14.8276 20.436C14.7225 20.3364 14.6727 20.2036 14.6782 20.0376L15.0186 8.3335C15.0241 8.16748 15.0794 8.03743 15.1846 7.94336C15.2952 7.84375 15.4336 7.79395 15.5996 7.79395C15.7712 7.79395 15.9095 7.84375 16.0146 7.94336C16.1253 8.04297 16.1779 8.17578 16.1724 8.3418L15.832 20.0459C15.8265 20.2119 15.7712 20.3447 15.666 20.4443C15.5609 20.5439 15.4225 20.5938 15.251 20.5938ZM7.43994 4.99658V2.63086C7.43994 1.88932 7.66406 1.30827 8.1123 0.887695C8.56608 0.461589 9.18864 0.248535 9.97998 0.248535H14.1221C14.9134 0.248535 15.5332 0.461589 15.9814 0.887695C16.4352 1.30827 16.6621 1.88932 16.6621 2.63086V4.99658H15.2095V2.71387C15.2095 2.38184 15.1043 2.11621 14.894 1.91699C14.6838 1.71777 14.3988 1.61816 14.0391 1.61816H10.063C9.70329 1.61816 9.41829 1.71777 9.20801 1.91699C8.99772 2.11621 8.89258 2.38184 8.89258 2.71387V4.99658H7.43994ZM2.45947 5.71875C2.27686 5.71875 2.11637 5.65234 1.97803 5.51953C1.83968 5.38118 1.77051 5.21794 1.77051 5.02979C1.77051 4.84163 1.83968 4.67839 1.97803 4.54004C2.11637 4.40169 2.27686 4.33252 2.45947 4.33252H21.6592C21.8473 4.33252 22.0078 4.40169 22.1406 4.54004C22.279 4.67285 22.3481 4.8361 22.3481 5.02979C22.3481 5.21794 22.2817 5.38118 22.1489 5.51953C22.0161 5.65234 21.8529 5.71875 21.6592 5.71875H2.45947ZM7.19092 23.9556C6.70394 23.9556 6.27507 23.856 5.9043 23.6567C5.53906 23.4575 5.24854 23.1781 5.03271 22.8184C4.81689 22.4587 4.69792 22.0409 4.67578 21.5649L3.88721 5.53613H5.32324L6.11182 21.4072C6.12842 21.7393 6.25016 22.016 6.47705 22.2373C6.70394 22.4587 6.98063 22.5693 7.30713 22.5693H16.8032C17.1353 22.5693 17.4147 22.4587 17.6416 22.2373C17.8685 22.016 17.9902 21.7393 18.0068 21.4072L18.7539 5.52783H20.2397L19.4512 21.5566C19.429 22.0326 19.3073 22.4504 19.0859 22.8101C18.8701 23.1698 18.5768 23.4492 18.2061 23.6484C17.8408 23.8532 17.4202 23.9556 16.9443 23.9556H7.19092Z" fill="#5856D6"/>
</svg>
