<svg width="24" height="18" viewBox="0 0 24 18" fill="none" xmlns="http://www.w3.org/2000/svg">
    <path d="M11.9902 9.91602C11.6908 9.91602 11.3913 9.78255 11.0918 9.51562L1.30664 0.863281C1.82096 0.544271 2.46549 0.384766 3.24023 0.384766H20.7402C21.5215 0.384766 22.166 0.544271 22.6738 0.863281L12.8887 9.51562C12.5957 9.78255 12.2962 9.91602 11.9902 9.91602ZM0.28125 15.8047C0.203125 15.6159 0.141276 15.4043 0.0957031 15.1699C0.0566406 14.9355 0.0371094 14.6654 0.0371094 14.3594V3.55859C0.0371094 3.22656 0.0598958 2.9401 0.105469 2.69922C0.157552 2.45182 0.212891 2.26628 0.271484 2.14258L7.53711 8.56836L0.28125 15.8047ZM2.99609 17.5332C2.63802 17.5332 2.31901 17.4941 2.03906 17.416C1.75911 17.3444 1.52148 17.2435 1.32617 17.1133L8.77734 9.65234L10.1152 10.8438C10.4212 11.1107 10.7272 11.3092 11.0332 11.4395C11.3392 11.5697 11.6582 11.6348 11.9902 11.6348C12.3223 11.6348 12.6413 11.5697 12.9473 11.4395C13.2598 11.3092 13.569 11.1107 13.875 10.8438L15.2129 9.65234L22.6641 17.1133C22.4688 17.2435 22.2311 17.3444 21.9512 17.416C21.6712 17.4941 21.3522 17.5332 20.9941 17.5332H2.99609ZM23.709 15.8047L16.4531 8.56836L23.7188 2.14258C23.7708 2.26628 23.8229 2.45182 23.875 2.69922C23.9271 2.9401 23.9531 3.22656 23.9531 3.55859V14.3594C23.9531 14.6654 23.9303 14.9355 23.8848 15.1699C23.8392 15.4043 23.7806 15.6159 23.709 15.8047Z" fill="#18191F"/>
</svg>
