<svg width="24" height="24" viewBox="0 0 20 20" fill="none" xmlns="http://www.w3.org/2000/svg">
    <path fill-rule="evenodd" clip-rule="evenodd" d="M19.6 10.2273C19.6 9.03695 18.5523 8.18188 17.3619 8.18188H11.9341C10.8659 8.18188 10 9.04781 10 10.116C10 11.1841 10.8659 12.0501 11.9341 12.0501H12.8071C14.146 12.0501 15.1575 13.3395 14.2528 14.3266C14.1922 14.3927 14.1295 14.4573 14.0648 14.5201C13.6734 14.9004 13.3864 15.3958 13.3864 15.9416C13.3864 16.845 14.1187 17.5773 15.0221 17.5773H15.711C16.2944 17.5773 16.8667 17.3669 17.2521 16.929C18.7508 15.2263 19.6 12.9144 19.6 10.2273Z" fill="#4285F4"/>
    <path fill-rule="evenodd" clip-rule="evenodd" d="M9.99996 19.9999C11.6963 19.9999 13.2204 19.6464 14.5294 19.0049C15.7228 18.42 15.6624 16.8352 14.6126 16.0202C13.8805 15.4518 12.8734 15.4549 11.9889 15.7321C11.3889 15.9201 10.7234 16.0226 9.99996 16.0226C7.88707 16.0226 6.03742 14.865 4.99459 13.1661C4.5573 12.4537 3.84053 11.8999 3.00464 11.8999C1.93263 11.8999 1.0636 12.7689 1.0636 13.8409V13.9935C1.0636 14.3205 1.13685 14.645 1.29825 14.9293C3.01711 17.9578 6.26829 19.9999 9.99996 19.9999Z" fill="#34A853"/>
    <path fill-rule="evenodd" clip-rule="evenodd" d="M3.17475 12.8537C3.91151 12.2823 4.16419 11.3078 4.10329 10.3775C4.0951 10.2524 4.09091 10.1265 4.09091 9.99994C4.09091 9.46608 4.16547 8.94415 4.30008 8.44622C4.36262 8.21493 4.40455 7.97779 4.40455 7.7382V7.57502C4.40455 6.434 3.47957 5.50903 2.33856 5.50903C1.55703 5.50903 0.824823 5.94444 0.565595 6.68173C0.200419 7.72036 0 8.83775 0 9.99994C0 10.6748 0.0675808 11.3346 0.195759 11.9726C0.468268 13.329 2.08148 13.7015 3.17475 12.8537Z" fill="#FBBC05"/>
    <path fill-rule="evenodd" clip-rule="evenodd" d="M9.99996 3.97727C10.7769 3.97727 11.5119 4.11857 12.1853 4.39846C13.1962 4.81867 14.4412 4.85419 15.2154 4.08003C16.0217 3.27371 16.0063 1.93611 15.0271 1.35162C13.59 0.4937 11.9026 0 9.99996 0C6.64782 0 3.68341 1.64785 1.86915 4.17825C1.34211 4.91334 1.57929 5.90901 2.29405 6.46332C3.32466 7.26257 4.87016 6.77445 5.76638 5.82695C6.83812 4.6939 8.33756 3.97727 9.99996 3.97727Z" fill="#EA4335"/>
</svg>
