<svg width="20" height="17" viewBox="0 0 20 17" fill="none" xmlns="http://www.w3.org/2000/svg">
    <path d="M2.83643 14.8237H17.1719C17.5648 14.8237 17.8747 14.7103 18.1016 14.4834C18.334 14.2565 18.4502 13.9438 18.4502 13.5454V12.2671L14.6318 8.73096C14.4382 8.54834 14.2251 8.41276 13.9927 8.32422C13.7658 8.23568 13.5389 8.19141 13.312 8.19141C12.825 8.19141 12.3796 8.36849 11.9756 8.72266L8.00781 12.2422L6.42236 10.8145C6.05713 10.4769 5.65869 10.3081 5.22705 10.3081C5.04443 10.3081 4.85628 10.3496 4.6626 10.4326C4.46891 10.5156 4.28076 10.6374 4.09814 10.7979L1.5498 13.0225V13.5288C1.5498 13.9328 1.66325 14.251 1.89014 14.4834C2.12256 14.7103 2.43799 14.8237 2.83643 14.8237ZM6.43896 8.72266C6.80973 8.72266 7.15007 8.63135 7.45996 8.44873C7.76986 8.26058 8.01611 8.01156 8.19873 7.70166C8.38688 7.39176 8.48096 7.04867 8.48096 6.67236C8.48096 6.29606 8.38688 5.95296 8.19873 5.64307C8.01611 5.33317 7.76986 5.08691 7.45996 4.9043C7.15007 4.71615 6.80973 4.62207 6.43896 4.62207C6.06266 4.62207 5.71956 4.71615 5.40967 4.9043C5.09977 5.08691 4.85075 5.33317 4.6626 5.64307C4.47998 5.95296 4.38867 6.29606 4.38867 6.67236C4.38867 7.04867 4.47998 7.39176 4.6626 7.70166C4.85075 8.01156 5.09977 8.26058 5.40967 8.44873C5.71956 8.63135 6.06266 8.72266 6.43896 8.72266ZM2.81982 16.1519C1.95101 16.1519 1.29801 15.936 0.86084 15.5044C0.429199 15.0783 0.213379 14.4391 0.213379 13.5869V3.44336C0.213379 2.58561 0.429199 1.94368 0.86084 1.51758C1.29801 1.08594 1.95101 0.870117 2.81982 0.870117H17.1802C18.0545 0.870117 18.7075 1.08594 19.1392 1.51758C19.5708 1.94922 19.7866 2.59115 19.7866 3.44336V13.5869C19.7866 14.4391 19.5708 15.0783 19.1392 15.5044C18.7075 15.936 18.0545 16.1519 17.1802 16.1519H2.81982Z" fill="black"/>
</svg>
