<svg width="24" height="24" viewBox="0 0 18 10" fill="none" xmlns="http://www.w3.org/2000/svg">
    <path d="M1.22217 9.27344C1.05062 9.27344 0.903971 9.21257 0.782227 9.09082C0.660482 8.96354 0.599609 8.81136 0.599609 8.63428C0.599609 8.46273 0.660482 8.31608 0.782227 8.19434C0.903971 8.07259 1.05062 8.01172 1.22217 8.01172H16.7612C16.9328 8.01172 17.0794 8.07259 17.2012 8.19434C17.3285 8.31608 17.3921 8.46273 17.3921 8.63428C17.3921 8.81136 17.3285 8.96354 17.2012 9.09082C17.0794 9.21257 16.9328 9.27344 16.7612 9.27344H1.22217ZM1.22217 5.646C1.05062 5.646 0.903971 5.58512 0.782227 5.46338C0.660482 5.34163 0.599609 5.19499 0.599609 5.02344C0.599609 4.84635 0.660482 4.69694 0.782227 4.5752C0.903971 4.44792 1.05062 4.38428 1.22217 4.38428H16.7612C16.9328 4.38428 17.0794 4.44792 17.2012 4.5752C17.3285 4.69694 17.3921 4.84635 17.3921 5.02344C17.3921 5.19499 17.3285 5.34163 17.2012 5.46338C17.0794 5.58512 16.9328 5.646 16.7612 5.646H1.22217ZM1.22217 2.02686C1.05062 2.02686 0.903971 1.96598 0.782227 1.84424C0.660482 1.72249 0.599609 1.57585 0.599609 1.4043C0.599609 1.22721 0.660482 1.0778 0.782227 0.956055C0.903971 0.83431 1.05062 0.773438 1.22217 0.773438H16.7612C16.9328 0.773438 17.0794 0.83431 17.2012 0.956055C17.3285 1.0778 17.3921 1.22721 17.3921 1.4043C17.3921 1.57585 17.3285 1.72249 17.2012 1.84424C17.0794 1.96598 16.9328 2.02686 16.7612 2.02686H1.22217Z" fill="#3C3C43" fill-opacity="0.3"/>
</svg>
