<svg width="24" height="24" viewBox="0 0 19 21" fill="none" xmlns="http://www.w3.org/2000/svg">
    <path d="M15 12C15.34 12 15.67 12.04 16 12.09V9C16 7.9 15.11 7 14 7H13V5C13 2.24 10.76 0 8 0C5.24 0 3 2.24 3 5V7H2C0.9 7 0 7.89 0 9V19C0 20.11 0.89 21 2 21H9.81C9.3 20.12 9 19.1 9 18C9 14.69 11.69 12 15 12ZM5 5C5 3.34 6.34 2 8 2C9.66 2 11 3.34 11 5V7H5V5ZM8 16C6.9 16 6 15.11 6 14C6 12.89 6.9 12 8 12C9.1 12 10 12.89 10 14C10 15.11 9.11 16 8 16ZM18.5 16.25L13.75 21L11 18L12.16 16.84L13.75 18.43L17.34 14.84L18.5 16.25Z" fill="black"/>
</svg>
