<svg width="24" height="24" viewBox="0 0 15 15" fill="none" xmlns="http://www.w3.org/2000/svg">
    <path d="M0.642578 10.1689C0.642578 9.41699 0.770182 8.73796 1.02539 8.13184C1.2806 7.52572 1.62695 7.0472 2.06445 6.69629C2.50651 6.34082 3.00098 6.16309 3.54785 6.16309H4.46387C4.236 6.47754 4.02409 6.82845 3.82812 7.21582C3.63672 7.60319 3.48177 8.03613 3.36328 8.51465C3.24479 8.99316 3.18327 9.51953 3.17871 10.0938C3.17415 10.9186 3.31999 11.6797 3.61621 12.377C3.91243 13.0697 4.37044 13.6621 4.99023 14.1543H3.81445C3.20833 14.1543 2.66602 13.9743 2.1875 13.6143C1.70898 13.2542 1.33073 12.7734 1.05273 12.1719C0.779297 11.5703 0.642578 10.9027 0.642578 10.1689ZM4.21777 10.1074C4.22233 9.55599 4.27246 9.05924 4.36816 8.61719C4.46842 8.17057 4.62109 7.74674 4.82617 7.3457C5.03125 6.94466 5.29102 6.53223 5.60547 6.1084C6.14779 5.3929 6.74251 4.61133 7.38965 3.76367C8.03678 2.91602 8.62467 1.97949 9.15332 0.954102C9.31283 0.65332 9.47461 0.423177 9.63867 0.263672C9.80273 0.0996094 10.0169 0.0175781 10.2812 0.0175781C10.5957 0.0175781 10.8555 0.120117 11.0605 0.325195C11.2656 0.530273 11.3682 0.810547 11.3682 1.16602C11.3682 1.48503 11.3066 1.8291 11.1836 2.19824C11.0651 2.56283 10.9261 2.92741 10.7666 3.29199C10.6071 3.65202 10.4681 3.99154 10.3496 4.31055C10.2311 4.62956 10.1719 4.90299 10.1719 5.13086C10.1719 5.36784 10.2585 5.55469 10.4316 5.69141C10.6048 5.82812 10.8395 5.89648 11.1357 5.89648H13.6445C13.8997 5.89648 14.1276 5.95573 14.3281 6.07422C14.5286 6.19271 14.6882 6.35449 14.8066 6.55957C14.9251 6.76465 14.9844 6.99251 14.9844 7.24316C14.9844 7.43913 14.9525 7.62142 14.8887 7.79004C14.8294 7.9541 14.7428 8.08854 14.6289 8.19336C14.5469 8.26628 14.54 8.33691 14.6084 8.40527C14.6995 8.50098 14.7702 8.63086 14.8203 8.79492C14.8704 8.95443 14.8955 9.12077 14.8955 9.29395C14.8955 9.53092 14.8454 9.7474 14.7451 9.94336C14.6449 10.1393 14.5127 10.2897 14.3486 10.3945C14.2529 10.4538 14.237 10.5267 14.3008 10.6133C14.4557 10.8366 14.5332 11.1077 14.5332 11.4268C14.5332 11.7002 14.458 11.9417 14.3076 12.1514C14.1572 12.361 13.9658 12.5228 13.7334 12.6367C13.665 12.6641 13.6559 12.7188 13.7061 12.8008C13.7425 12.8783 13.7744 12.9671 13.8018 13.0674C13.8291 13.1676 13.8428 13.2839 13.8428 13.416C13.8428 13.7624 13.7266 14.0358 13.4941 14.2363C13.2663 14.4414 12.9928 14.585 12.6738 14.667C12.4688 14.7171 12.193 14.7581 11.8467 14.79C11.5049 14.8219 11.1084 14.8356 10.6572 14.8311H9.68652C8.85254 14.8311 8.09831 14.7126 7.42383 14.4756C6.74935 14.2386 6.17285 13.9059 5.69434 13.4775C5.21582 13.0537 4.84896 12.5547 4.59375 11.9805C4.3431 11.4062 4.21777 10.7819 4.21777 10.1074Z" fill="white"/>
</svg>
