<svg width="24" height="24" viewBox="0 0 15 15" fill="none" xmlns="http://www.w3.org/2000/svg">
    <path d="M0.231445 10.1689C0.231445 9.41699 0.359049 8.73796 0.614258 8.13184C0.869466 7.52572 1.21582 7.0472 1.65332 6.69629C2.09538 6.34082 2.58984 6.16309 3.13672 6.16309H4.05273C3.82487 6.47754 3.61296 6.82845 3.41699 7.21582C3.22559 7.60319 3.07064 8.03613 2.95215 8.51465C2.83366 8.99316 2.77214 9.51953 2.76758 10.0938C2.76302 10.9186 2.90885 11.6797 3.20508 12.377C3.5013 13.0697 3.95931 13.6621 4.5791 14.1543H3.40332C2.7972 14.1543 2.25488 13.9743 1.77637 13.6143C1.29785 13.2542 0.919596 12.7734 0.641602 12.1719C0.368164 11.5703 0.231445 10.9027 0.231445 10.1689ZM3.80664 10.1074C3.8112 9.55599 3.86133 9.05924 3.95703 8.61719C4.05729 8.17057 4.20996 7.74674 4.41504 7.3457C4.62012 6.94466 4.87988 6.53223 5.19434 6.1084C5.73665 5.3929 6.33138 4.61133 6.97852 3.76367C7.62565 2.91602 8.21354 1.97949 8.74219 0.954102C8.90169 0.65332 9.06348 0.423177 9.22754 0.263672C9.3916 0.0996094 9.60579 0.0175781 9.87012 0.0175781C10.1846 0.0175781 10.4443 0.120117 10.6494 0.325195C10.8545 0.530273 10.957 0.810547 10.957 1.16602C10.957 1.48503 10.8955 1.8291 10.7725 2.19824C10.654 2.56283 10.515 2.92741 10.3555 3.29199C10.196 3.65202 10.057 3.99154 9.93848 4.31055C9.81999 4.62956 9.76074 4.90299 9.76074 5.13086C9.76074 5.36784 9.84733 5.55469 10.0205 5.69141C10.1937 5.82812 10.4284 5.89648 10.7246 5.89648H13.2334C13.4886 5.89648 13.7165 5.95573 13.917 6.07422C14.1175 6.19271 14.277 6.35449 14.3955 6.55957C14.514 6.76465 14.5732 6.99251 14.5732 7.24316C14.5732 7.43913 14.5413 7.62142 14.4775 7.79004C14.4183 7.9541 14.3317 8.08854 14.2178 8.19336C14.1357 8.26628 14.1289 8.33691 14.1973 8.40527C14.2884 8.50098 14.359 8.63086 14.4092 8.79492C14.4593 8.95443 14.4844 9.12077 14.4844 9.29395C14.4844 9.53092 14.4342 9.7474 14.334 9.94336C14.2337 10.1393 14.1016 10.2897 13.9375 10.3945C13.8418 10.4538 13.8258 10.5267 13.8896 10.6133C14.0446 10.8366 14.1221 11.1077 14.1221 11.4268C14.1221 11.7002 14.0469 11.9417 13.8965 12.1514C13.7461 12.361 13.5547 12.5228 13.3223 12.6367C13.2539 12.6641 13.2448 12.7188 13.2949 12.8008C13.3314 12.8783 13.3633 12.9671 13.3906 13.0674C13.418 13.1676 13.4316 13.2839 13.4316 13.416C13.4316 13.7624 13.3154 14.0358 13.083 14.2363C12.8551 14.4414 12.5817 14.585 12.2627 14.667C12.0576 14.7171 11.7819 14.7581 11.4355 14.79C11.0938 14.8219 10.6973 14.8356 10.2461 14.8311H9.27539C8.44141 14.8311 7.68717 14.7126 7.0127 14.4756C6.33822 14.2386 5.76172 13.9059 5.2832 13.4775C4.80469 13.0537 4.43783 12.5547 4.18262 11.9805C3.93197 11.4062 3.80664 10.7819 3.80664 10.1074Z" fill="#5856D6"/>
</svg>
