<svg width="24" height="24" viewBox="0 0 18 18" fill="none" xmlns="http://www.w3.org/2000/svg">
    <path d="M2.50586 17.7773C1.95898 17.7773 1.5293 17.6536 1.2168 17.4062C0.904297 17.1589 0.748047 16.8203 0.748047 16.3906C0.748047 15.7591 0.936849 15.0983 1.31445 14.4082C1.69857 13.7181 2.2487 13.0703 2.96484 12.4648C3.6875 11.8594 4.55664 11.3678 5.57227 10.9902C6.58789 10.6126 7.72721 10.4238 8.99023 10.4238C10.2598 10.4238 11.4023 10.6126 12.418 10.9902C13.4336 11.3678 14.2995 11.8594 15.0156 12.4648C15.7383 13.0703 16.2917 13.7181 16.6758 14.4082C17.0599 15.0983 17.252 15.7591 17.252 16.3906C17.252 16.8203 17.0957 17.1589 16.7832 17.4062C16.4707 17.6536 16.041 17.7773 15.4941 17.7773H2.50586ZM9 8.68555C8.29036 8.68555 7.63607 8.49349 7.03711 8.10938C6.44466 7.72526 5.96615 7.20768 5.60156 6.55664C5.24349 5.9056 5.06445 5.17643 5.06445 4.36914C5.06445 3.57487 5.24349 2.85872 5.60156 2.2207C5.96615 1.57617 6.44792 1.0651 7.04688 0.6875C7.64583 0.309896 8.29688 0.121094 9 0.121094C9.70964 0.121094 10.3639 0.306641 10.9629 0.677734C11.5618 1.04883 12.0404 1.55664 12.3984 2.20117C12.763 2.83919 12.9453 3.55534 12.9453 4.34961C12.9453 5.16341 12.763 5.89909 12.3984 6.55664C12.0404 7.20768 11.5618 7.72526 10.9629 8.10938C10.3639 8.49349 9.70964 8.68555 9 8.68555Z" fill="#18191F"/>
</svg>
